<svg width="100" height="100" viewBox="0 0 100 100" xmlns="http://www.w3.org/2000/svg">
  <g fill-rule="evenodd">
    <path d="M68.353 19.526c-.229.055-1.26.374-2.291.708-2.954.956-5.391 1.464-7.246 1.51-.942.023-.764.208-.764.208l.189.735 12.095 48.874s1.862-.342 3.921-1.355c2.883-1.419 2.362-3.472-2.557-10.085-4.007-5.386-4.352-6.133-3.766-8.149.771-2.652 4.024-7.797 6.232-9.856.688-.642.716-.514-.481-2.156-1.588-2.178-1.681-2.607-1.904-8.797-.381-10.522-.89-12.249-3.428-11.637m-42.995 8.82c-2.741.665-3.273 2.601-2.539 9.24.723 6.539.708 6.583-3.963 11.258-3.26 3.263-3.152 2.871-1.344 4.863 3.996 4.403 10.053 6.804 14.595 5.786 1.793-.402 3.344-1.1 3.344-1.1s-1.812-7.059-3.762-15.251l-3.548-14.896c-.168-.067-.33-.134-.72-.135-.572-.02-1.71.113-2.063.235m9.401 36.326c-3.779 6.917-5.803 13.607-4.41 14.583.608.425.713.265.913-1.395.414-3.43 2.228-9.15 4.153-13.096m0 0c.74-1.516 1.527-3.199 1.398-3.264-.1-.052-1.232 1.668-2.054 3.172" fill="#cacaca"/>
    <path d="M53.127 21.868c-.874.225-.975.302-1.618 1.229l-.587.89 1.582 6.255c.856 3.485 2.594 10.556 3.864 15.712 1.927 7.822 4.674 19.017 6.238 25.415l.356 1.457.82-.067c.983-.08 6.337-1.048 6.561-1.187.167-.103-12.025-49.418-12.282-49.675-.214-.214-4.165-.226-4.934-.029M31.625 42.894c3.968 16.669 3.826 15.499 3.826 15.499s3.267-1.709 4.569-2.693c.673-.509.931-.63.729-.343l-1.697 2.396c-1.817 2.56-3.245 5.056-2.977 5.023.125-.016.454-.33.584-.545 1.808-2.985 4.951-7.207 5.084-6.829.031.088-.412 1.152-.983 2.364-4.324 9.167-2.858 15.082 5.039 20.334 1.643 1.092 1.602 1.099 3.548-.659l1.202-1.087-1.997-8.116c-1.098-4.465-3.49-14.199-5.315-21.633-1.826-7.433-3.652-15.067-3.652-15.067s-.125.002-1.398-.233c-.723-.133-2.504-.709-3.957-1.279-2.582-1.014-4.914-1.7-5.29-1.726 0 0-.527-.075-.799-.054.851 3.956 3.484 14.648 3.484 14.648" fill="#efefef"/>
    <path d="M50.124 24.943c-1.838 2.347-7.162 5.434-9.956 6.419l-.583.176s2.967 12.693 8.89 36.395c.914 3.724 1.707 7.142 1.828 7.596l.246.825 1.418-1.526 1.387-1.525 3.541-.054c1.948-.029 4.112-.124 4.809-.211l1.268-.157-.889-3.672c-.49-2.019-1.699-6.953-2.687-10.963-2.811-11.401-4.729-19.21-6.552-26.667-2.051-8.393-1.922-7.592-1.922-7.592" fill="#fff"/>
    <path d="m31.687 17.226-18.542 10.72-.057 3.431-.112 2.876-3.685.139v1.666l3.68.102.07 2.703v2.804l-3.646.121v1.458l3.646.12v5.384l-3.646.121v1.458l3.646.121v5.592l-3.646.121v1.458l3.646.12v6.426l-3.646.121v1.458l3.646.12v5.345L31.689 81.97l18.649 10.76 18.643-10.764 18.643-10.764V65.85l3.333-.116v-.717c0-.382-.003-.72-.003-.72l-3.33-.114v-6.458l3.336-.13s-.002-.321-.002-.703c0-.382.008-.701.008-.701l-3.341-.133v-5.625l3.33-.118s.002-.333.002-.715c0-.382-.003-.743-.003-.743l-3.33-.09V43.35l3.334-.133v-.7c0-.382.002-.715.002-.715l-3.336-.119v-5.625c1.299.049 3.997.679 3.275-1.164.054-.657-1.644-.564-3.275-.502v-6.381l-18.65-10.768C58.716 11.321 50.302 6.482 50.276 6.49c-.026.008-8.392 4.839-18.589 10.736m38.747 2.58c.852.941 1.255 4.106 1.54 12.107.195 5.477.337 6.067 1.99 8.231.956 1.253.944 1.366-.305 2.732-2.131 2.332-4.648 6.318-5.393 8.54-.804 2.401-.604 2.952 2.705 7.458 6.345 8.64 6.663 10.277 2.32 11.945-3.977 1.528-13.777 2.98-17.879 2.65l-1.691-.136-2.692 2.665c-3.681 3.643-3.404 3.544-5.644 2.024-7.693-5.22-9.038-10.98-4.763-20.401l.756-1.667-.74.834c-4.093 4.611-7.944 13.326-9.169 20.751-.423 2.568-.325 2.402-1.146 1.925l-.662-.385.105-1.577c.266-3.985 4.295-12.836 8.859-19.458l1.575-2.285-1.056.775c-6.891 5.058-14.812 4.213-21.239-2.266-2.434-2.454-2.511-2.057 1.131-5.801 4.461-4.584 4.439-4.507 3.49-12.2-1.028-8.325 2.165-10.172 11.347-6.566 4.77 1.874 5.42 1.944 7.928.857 3.902-1.691 6.811-3.918 9.177-7.027 1.472-1.933 1.594-1.976 5.396-1.898 3.422.07 5.246-.2 8.816-1.303 3.336-1.03 4.666-1.163 5.244-.524" fill="#0a1926"/>
    <path d="M31.27 16.809 12.728 27.53l-.057 3.222-.09 3.137-1.421.086c-.798.048-1.523.008-1.609.018-.753.085-.972 1.893-.274 2.266.222.119 1.065.216 1.875.216l1.464.078.008 2.291v2.369l-1.686.098c-1.792.103-2.058.259-2.058 1.206 0 .946.266 1.102 2.058 1.206l1.686.097v4.53l-1.302.016c-2.152.026-2.442.172-2.442 1.234 0 .946.266 1.102 2.058 1.206l1.686.098v4.738l-1.302.016c-2.152.026-2.442.172-2.442 1.234 0 .946.266 1.102 2.058 1.206l1.686.097v5.572h-1.548c-1.726 0-2.204.263-2.199 1.212.006 1.016.266 1.174 2.072 1.256l1.675.076v5.317l18.645 10.757c10.254 5.916 18.836 10.757 19.069 10.757.233 0 8.812-4.843 19.064-10.762l18.639-10.761v-5.352h1.416c1.627 0 1.917-.19 1.917-1.25 0-1.061-.29-1.25-1.917-1.25h-1.416v-5.625h1.416c1.637 0 1.917-.188 1.917-1.285 0-.99-.384-1.215-2.07-1.215h-1.263V50.85h1.416c1.627 0 1.917-.189 1.917-1.25s-.29-1.25-1.917-1.25h-1.416v-4.583h1.416c1.627 0 1.917-.19 1.917-1.25 0-1.061-.29-1.25-1.917-1.25h-1.416v-4.735l1.393-.112c.69-.055.859-.008 1.203-.23.344-.223.425-.712.424-.988-.002-.276-.094-.814-.441-1.03-.347-.217-.509-.114-1.2-.158l-1.379-.088v-6.332L69.39 16.826C59.133 10.904 50.531 6.065 50.276 6.073c-.256.008-8.808 4.839-19.006 10.736m37.704.434 18.65 10.768v6.381l2.993.104.008 1.442-3.001.12v5.625l3.335.119-.002.715v.7l-3.333.133v5.417l3.33.09.003.743-.003.715-3.33.118v5.625l1.667.072 1.674.06-.008.702.002.703-1.668.064-1.667.066v6.458l3.33.113.003.721v.717l-3.333.116v5.352L68.981 81.966 50.338 92.73 31.689 81.97 13.041 71.211v-5.345l-1.823-.06-1.823-.06v-1.458l1.823-.061 1.823-.06v-6.426l-1.823-.06-1.823-.06v-1.458l1.823-.061 1.823-.06V50.45l-1.823-.061-1.823-.06v-1.458l1.823-.06 1.823-.061v-5.384l-1.823-.06-1.823-.06v-1.458l1.823-.061 1.823-.06v-2.804l-.07-2.703-1.883-.055-1.797-.047v-1.666l1.713-.047 1.972-.092.111-3.084.058-3.223 18.542-10.72A9977.23 9977.23 0 0 1 50.276 6.49c.026-.008 8.44 4.831 18.698 10.753M67.672 53.35" fill="#8c8c94"/>
  </g>
</svg>
