<?xml version="1.0" encoding="UTF-8"?>
<svg version="1.1" xmlns="http://www.w3.org/2000/svg" width="96" height="96">
<path d="M0 0 C6.75 0.875 6.75 0.875 9 2 C7.64408924 8.63992527 5.80830248 14.92774472 3.59375 21.328125 C3.10569885 22.75617462 3.10569885 22.75617462 2.60778809 24.21307373 C1.92419591 26.21052533 1.23833107 28.20720047 0.55029297 30.203125 C-0.50123368 33.25357888 -1.54614798 36.30623398 -2.58984375 39.359375 C-3.25743223 41.30742203 -3.92538821 43.25534316 -4.59375 45.203125 C-4.90526001 46.11153137 -5.21677002 47.01993774 -5.53771973 47.95587158 C-6.93634801 52.01066591 -8.34847691 56.03921324 -10 60 C-16.75 59.125 -16.75 59.125 -19 58 C-17.64408924 51.36007473 -15.80830248 45.07225528 -13.59375 38.671875 C-13.26838257 37.71984192 -12.94301514 36.76780884 -12.60778809 35.78692627 C-11.92419591 33.78947467 -11.23833107 31.79279953 -10.55029297 29.796875 C-9.49876632 26.74642112 -8.45385202 23.69376602 -7.41015625 20.640625 C-6.74256777 18.69257797 -6.07461179 16.74465684 -5.40625 14.796875 C-5.09473999 13.88846863 -4.78322998 12.98006226 -4.46228027 12.04412842 C-3.06365199 7.98933409 -1.65152309 3.96078676 0 0 Z " fill="#2096F3" transform="translate(53,18)"/>
<path d="M0 0 C2.45943969 0.89600405 3.61258881 1.94066211 5.4140625 3.828125 C6.31125 4.76398437 6.31125 4.76398437 7.2265625 5.71875 C9.73878392 8.46125839 12.19840413 11.24455495 14.62109375 14.06640625 C15.73327422 15.34291945 16.90439264 16.56845514 18.1015625 17.765625 C18.18227705 20.59063442 17.56356618 22.23204329 15.71484375 24.3671875 C14.51773433 25.54546598 13.30578535 26.70879383 12.08203125 27.859375 C9.39820708 30.44262193 7.00677205 33.24216582 4.58203125 36.06640625 C3.46985078 37.34291945 2.29873236 38.56845514 1.1015625 39.765625 C-1.35692962 39.52770641 -2.71046365 38.901744 -4.7109375 37.453125 C-5.8984375 35.765625 -5.8984375 35.765625 -5.71875 33.90625 C-4.36617295 30.37666799 -1.55224588 28.36792194 1.19140625 25.86328125 C3.25213529 23.60027206 4.14334249 21.65031876 5.1015625 18.765625 C3.64391085 17.14001349 2.18541864 15.51515566 0.7265625 13.890625 C-0.08554688 12.98570313 -0.89765625 12.08078125 -1.734375 11.1484375 C-3.08919955 9.65666317 -4.47349185 8.19057065 -5.8984375 6.765625 C-5.66051891 4.30713288 -5.0345565 2.95359885 -3.5859375 0.953125 C-1.8984375 -0.234375 -1.8984375 -0.234375 0 0 Z " fill="#3D50B5" transform="translate(71.8984375,28.234375)"/>
<path d="M0 0 C2.45849212 0.23791859 3.81202615 0.863881 5.8125 2.3125 C7 4 7 4 6.89453125 5.796875 C5.21311323 9.93800933 1.32464097 12.53456689 -1.9453125 15.46484375 C-4.23552038 17.78091001 -4.23552038 17.78091001 -4.125 20.5 C-2.17470988 24.83397805 1.46377456 27.46812976 4.9453125 30.59765625 C7 33 7 33 6.88671875 35.1953125 C5.82886167 37.34830798 4.97230193 38.61208383 3 40 C-0.37745222 39.58303059 -1.99871574 38.36172742 -4.3125 35.9375 C-4.910625 35.31359375 -5.50875 34.6896875 -6.125 34.046875 C-8.63722142 31.30436661 -11.09684163 28.52107005 -13.51953125 25.69921875 C-14.63171172 24.42270555 -15.80283014 23.19716986 -17 22 C-17.08071455 19.17499058 -16.46200368 17.53358171 -14.61328125 15.3984375 C-13.41617183 14.22015902 -12.20422285 13.05683117 -10.98046875 11.90625 C-8.29664458 9.32300307 -5.90520955 6.52345918 -3.48046875 3.69921875 C-2.36828828 2.42270555 -1.19716986 1.19716986 0 0 Z " fill="#3D50B5" transform="translate(25,28)"/>
</svg>
