<svg xmlns="http://www.w3.org/2000/svg" width="48" height="48" viewBox="0 0 48 48" version="1.1"><path d="M 18.530 4.951 C 17.296 6.948, 19.122 8.068, 22.562 7.422 C 25.570 6.858, 26.081 7.082, 26.939 9.339 C 28.236 12.752, 32.187 15.240, 35.144 14.507 C 38.790 13.603, 40.712 17.288, 38.005 19.995 C 35.475 22.525, 35.462 25.046, 37.963 28.225 C 40.731 31.745, 38.683 34.595, 33.694 34.165 C 30.278 33.871, 27.587 35.608, 30.187 36.429 C 39.057 39.232, 47.626 32.443, 41.505 27.462 C 38.477 24.999, 38.381 23.870, 41 21.500 C 45.585 17.351, 41.221 9.449, 34.933 10.511 C 31.235 11.136, 31.068 11.040, 30.240 7.830 C 29.347 4.363, 20.272 2.132, 18.530 4.951 M 8.198 11.289 C 4.341 15.395, 3.909 18.180, 6.672 21.125 C 9.135 23.751, 9.135 23.751, 6.603 26.484 C 2.418 30.999, 7.759 39.805, 12.986 37.008 C 15.707 35.551, 17.755 37.053, 18.191 40.823 C 18.543 43.873, 24.067 45.105, 27.986 43.008 C 30.483 41.671, 29.619 39.669, 26.916 40.527 C 24.005 41.450, 21.265 40.191, 20.623 37.636 C 19.925 34.855, 16.289 33.031, 12.780 33.702 C 9.382 34.351, 7.981 30.783, 10.529 27.968 C 12.395 25.906, 11.910 19.470, 9.836 18.779 C 6.958 17.819, 10.123 13.933, 13.327 14.490 C 15.072 14.794, 17.128 14.628, 17.896 14.122 C 19.920 12.787, 18.545 10.045, 16.163 10.668 C 15.086 10.949, 13.321 10.707, 12.240 10.129 C 10.665 9.285, 9.865 9.515, 8.198 11.289 M 24.506 16.990 C 22.987 19.448, 20.962 30.362, 21.859 31.259 C 23.139 32.539, 23.971 30.883, 25.635 23.751 C 26.969 18.035, 26.308 14.075, 24.506 16.990 M 15.703 21.531 C 13.765 24.195, 15.689 28.892, 18.750 28.969 C 20.339 29.009, 20.369 26.769, 18.800 25.200 C 17.867 24.267, 17.867 23.733, 18.800 22.800 C 19.460 22.140, 20 21.015, 20 20.300 C 20 18.193, 17.641 18.869, 15.703 21.531 M 28 20.300 C 28 21.015, 28.540 22.140, 29.200 22.800 C 30.133 23.733, 30.133 24.267, 29.200 25.200 C 27.631 26.769, 27.661 29.009, 29.250 28.969 C 32.311 28.892, 34.235 24.195, 32.297 21.531 C 30.359 18.869, 28 18.193, 28 20.300" stroke="none" fill="#1d1f40" fill-rule="evenodd"/><path d="M 24.200 10.200 C 23.540 10.860, 23 12.194, 23 13.165 C 23 15.794, 19.505 17.341, 16.817 15.902 C 12.639 13.666, 9.817 19.207, 12.506 24.364 C 14.483 28.155, 14.405 28.930, 11.750 31.823 C 9.500 34.274, 9.500 34.274, 12.431 33.741 C 16.293 33.039, 19.905 34.774, 20.635 37.680 C 21.201 39.938, 23.890 41.229, 27 40.737 C 30.110 40.246, 29.356 42.546, 26.059 43.612 C 22.681 44.704, 22.659 44.747, 24.867 45.929 C 28.440 47.841, 32.819 46.397, 33.190 43.184 C 33.474 40.721, 33.866 40.500, 37.943 40.500 C 43.369 40.500, 47.724 35.295, 44.769 32.341 C 43.430 31.001, 43.020 31.232, 41.034 34.445 C 38.771 38.106, 36.696 38.486, 30.187 36.429 C 27.587 35.608, 30.278 33.871, 33.694 34.165 C 38.683 34.595, 40.731 31.745, 37.963 28.225 C 35.453 25.035, 35.476 22.524, 38.036 19.964 C 40.078 17.922, 39.831 15.532, 37.658 16.308 C 35.958 16.916, 29.186 13.270, 27.753 10.977 C 26.317 8.676, 25.830 8.570, 24.200 10.200 M 24.506 16.990 C 22.987 19.448, 20.962 30.362, 21.859 31.259 C 23.139 32.539, 23.971 30.883, 25.635 23.751 C 26.969 18.035, 26.308 14.075, 24.506 16.990 M 43.064 17.936 C 43.029 18.725, 42.043 20.390, 40.873 21.635 C 37.085 25.667, 39.665 28.461, 43.912 24.925 C 46.242 22.985, 46.269 22.808, 44.726 19.709 C 43.847 17.944, 43.099 17.146, 43.064 17.936 M 15.703 21.531 C 13.765 24.195, 15.689 28.892, 18.750 28.969 C 20.339 29.009, 20.369 26.769, 18.800 25.200 C 17.867 24.267, 17.867 23.733, 18.800 22.800 C 19.460 22.140, 20 21.015, 20 20.300 C 20 18.193, 17.641 18.869, 15.703 21.531 M 28 20.300 C 28 21.015, 28.540 22.140, 29.200 22.800 C 30.133 23.733, 30.133 24.267, 29.200 25.200 C 27.631 26.769, 27.661 29.009, 29.250 28.969 C 32.311 28.892, 34.235 24.195, 32.297 21.531 C 30.359 18.869, 28 18.193, 28 20.300" stroke="none" fill="#96a3d3" fill-rule="evenodd"/></svg>